<?xml version="1.0" encoding="UTF-8" standalone="no"?>
<!DOCTYPE svg PUBLIC "-//W3C//DTD SVG 1.1//EN" "http://www.w3.org/Graphics/SVG/1.1/DTD/svg11.dtd">
<svg width="100%" height="100%" viewBox="0 0 2051 2073" version="1.1" xmlns="http://www.w3.org/2000/svg" xmlns:xlink="http://www.w3.org/1999/xlink" xml:space="preserve" xmlns:serif="http://www.serif.com/" style="fill-rule:evenodd;clip-rule:evenodd;stroke-linejoin:round;stroke-miterlimit:2;">
    <g transform="matrix(5.50247,0,0,5.50247,-13796.1,-10261.4)">
        <g transform="matrix(1,0,0,1,-2.7575,-0.330881)">
            <g>
                <g transform="matrix(2.47601,0,0,2.47601,-3971.97,-3030.68)">
                    <circle cx="2693.17" cy="2054.65" r="64.687" style="fill:rgb(243,248,255);"/>
                </g>
                <g transform="matrix(1.86537,0,0,1.86537,-2310.67,-1759.46)">
                    <circle cx="2693.17" cy="2054.65" r="64.687" style="fill:url(#_Radial1);"/>
                </g>
            </g>
            <g transform="matrix(1.60812,0,0,1.60812,-1634.6,-1247.47)">
                <circle cx="2693.17" cy="2054.65" r="64.687" style="fill:url(#_Linear2);"/>
            </g>
            <g transform="matrix(1.00142,0,0,1.00142,-3.83002,-2.92138)">
                <g transform="matrix(1.28541,0,0,1.28541,-765.483,-584.409)">
                    <circle cx="2693.17" cy="2054.65" r="64.687" style="fill:url(#_Linear3);"/>
                </g>
                <g transform="matrix(0.181479,0,0,0.181479,2510.28,1865.48)">
                    <path d="M567.336,1036.23C576.364,791.326 778.062,595.238 1025.2,595.238C1278.07,595.238 1483.38,800.541 1483.38,1053.42C1483.38,1306.29 1278.07,1511.59 1025.2,1511.59C784.965,1511.59 587.668,1326.31 568.538,1090.96L580.946,1090.96C600.042,1319.47 791.793,1499.23 1025.2,1499.23C1271.25,1499.23 1471.01,1299.47 1471.01,1053.42C1471.01,807.366 1271.25,607.604 1025.2,607.604C784.904,607.604 588.759,798.126 579.71,1036.23L567.336,1036.23Z" style="fill:url(#_Linear4);"/>
                </g>
            </g>
            <g transform="matrix(0.752841,0,0,0.752841,666.423,508.32)">
                <g transform="matrix(1.28541,0,0,1.28541,-765.483,-584.409)">
                    <circle cx="2693.17" cy="2054.65" r="64.687" style="fill:url(#_Linear5);"/>
                </g>
                <g transform="matrix(0.241401,0,0,0.241401,2448.85,1802.35)">
                    <path d="M681.173,1036.23C690.137,854.1 840.852,708.97 1025.2,708.97C1215.3,708.97 1369.64,863.311 1369.64,1053.42C1369.64,1243.52 1215.3,1397.86 1025.2,1397.86C847.772,1397.86 701.499,1263.42 682.778,1090.96L692.131,1090.96C710.815,1258.29 852.912,1388.57 1025.2,1388.57C1210.17,1388.57 1360.35,1238.39 1360.35,1053.42C1360.35,868.442 1210.17,718.266 1025.2,718.266C845.994,718.266 699.452,859.217 690.481,1036.23L681.173,1036.23Z" style="fill:url(#_Linear6);"/>
                </g>
            </g>
            <g transform="matrix(0.504261,0,0,0.504261,1336.68,1019.56)">
                <g transform="matrix(1.28541,0,0,1.28541,-765.483,-584.409)">
                    <circle cx="2693.17" cy="2054.65" r="64.687" style="fill:url(#_Linear7);"/>
                </g>
                <g transform="matrix(0.360402,0,0,0.360402,2326.85,1677)">
                    <path d="M795.115,1036.23C803.919,916.908 903.643,822.702 1025.2,822.702C1152.53,822.702 1255.91,926.082 1255.91,1053.42C1255.91,1180.75 1152.53,1284.13 1025.2,1284.13C910.647,1284.13 815.483,1200.47 797.528,1090.96L803.841,1090.96C821.72,1197 914.085,1277.9 1025.2,1277.9C1149.1,1277.9 1249.68,1177.31 1249.68,1053.42C1249.68,929.518 1149.1,828.929 1025.2,828.929C907.085,828.929 810.156,920.343 801.359,1036.23L795.115,1036.23Z" style="fill:url(#_Linear8);"/>
                </g>
            </g>
        </g>
    </g>
    <g transform="matrix(5.50247,0,0,5.50247,-13796.1,-10261.4)">
        <g transform="matrix(0.866025,-0.5,0.5,0.866025,-666.696,1621.62)">
            <g id="G" transform="matrix(1,0,0,1,-1.21081,-1.21081)">
                <text x="2683.21px" y="1937.93px" style="font-family:'Arial-BoldMT', 'Arial', sans-serif;font-weight:700;font-size:13.892px;fill:rgb(164,171,181);">330°</text>
            </g>
            <g transform="matrix(0.293954,2.42566e-17,0,1.04868,1902.42,-93.331)">
                <rect x="2696.33" y="1900.42" width="6.027" height="20.441" style="fill:rgb(164,171,181);"/>
            </g>
            <g transform="matrix(0.189292,0.0507206,-0.099109,0.36988,2413.39,1066.28)">
                <rect x="2696.33" y="1900.42" width="6.027" height="20.441" style="fill:rgb(209,215,222);"/>
            </g>
        </g>
        <g transform="matrix(0.5,-0.866025,0.866025,0.5,-432.294,3360.52)">
            <g id="G1" serif:id="G" transform="matrix(1,0,0,1,-1.21081,-1.21081)">
                <text x="2683.21px" y="1937.93px" style="font-family:'Arial-BoldMT', 'Arial', sans-serif;font-weight:700;font-size:13.892px;fill:rgb(164,171,181);">300°</text>
            </g>
            <g transform="matrix(0.293954,2.42566e-17,0,1.04868,1902.42,-93.331)">
                <rect x="2696.33" y="1900.42" width="6.027" height="20.441" style="fill:rgb(164,171,181);"/>
            </g>
            <g transform="matrix(0.189292,0.0507206,-0.099109,0.36988,2413.39,1066.28)">
                <rect x="2696.33" y="1900.42" width="6.027" height="20.441" style="fill:rgb(209,215,222);"/>
            </g>
        </g>
        <g transform="matrix(-0.5,-0.866025,0.866025,-0.5,2264.72,5415.79)">
            <g id="G2" serif:id="G" transform="matrix(1,0,0,1,-1.21081,-1.21081)">
                <text x="2683.21px" y="1937.93px" style="font-family:'Arial-BoldMT', 'Arial', sans-serif;font-weight:700;font-size:13.892px;fill:rgb(164,171,181);">240°</text>
            </g>
            <g transform="matrix(0.293954,2.42566e-17,0,1.04868,1902.42,-93.331)">
                <rect x="2696.33" y="1900.42" width="6.027" height="20.441" style="fill:rgb(164,171,181);"/>
            </g>
            <g transform="matrix(0.189292,0.0507206,-0.099109,0.36988,2413.39,1066.28)">
                <rect x="2696.33" y="1900.42" width="6.027" height="20.441" style="fill:rgb(209,215,222);"/>
            </g>
        </g>
        <g transform="matrix(-0.866025,-0.5,0.5,-0.866025,4002.86,5181.22)">
            <g id="G3" serif:id="G" transform="matrix(1,0,0,1,-1.21081,-1.21081)">
                <text x="2683.21px" y="1937.93px" style="font-family:'Arial-BoldMT', 'Arial', sans-serif;font-weight:700;font-size:13.892px;fill:rgb(164,171,181);">210°</text>
            </g>
            <g transform="matrix(0.293954,2.42566e-17,0,1.04868,1902.42,-93.331)">
                <rect x="2696.33" y="1900.42" width="6.027" height="20.441" style="fill:rgb(164,171,181);"/>
            </g>
            <g transform="matrix(0.189292,0.0507206,-0.099109,0.36988,2413.39,1066.28)">
                <rect x="2696.33" y="1900.42" width="6.027" height="20.441" style="fill:rgb(209,215,222);"/>
            </g>
        </g>
        <g transform="matrix(-0.866025,0.5,-0.5,-0.866025,6058.65,2486.48)">
            <g id="G4" serif:id="G" transform="matrix(1,0,0,1,-1.21081,-1.21081)">
                <text x="2683.21px" y="1937.93px" style="font-family:'Arial-BoldMT', 'Arial', sans-serif;font-weight:700;font-size:13.892px;fill:rgb(164,171,181);">150°</text>
            </g>
            <g transform="matrix(0.293954,2.42566e-17,0,1.04868,1902.42,-93.331)">
                <rect x="2696.33" y="1900.42" width="6.027" height="20.441" style="fill:rgb(164,171,181);"/>
            </g>
            <g transform="matrix(0.189292,0.0507206,-0.099109,0.36988,2413.39,1066.28)">
                <rect x="2696.33" y="1900.42" width="6.027" height="20.441" style="fill:rgb(209,215,222);"/>
            </g>
        </g>
        <g transform="matrix(-0.5,0.866025,-0.866025,-0.5,5823.97,747.268)">
            <g id="G5" serif:id="G" transform="matrix(1,0,0,1,-1.21081,-1.21081)">
                <text x="2683.21px" y="1937.93px" style="font-family:'Arial-BoldMT', 'Arial', sans-serif;font-weight:700;font-size:13.892px;fill:rgb(164,171,181);">120°</text>
            </g>
            <g transform="matrix(0.293954,2.42566e-17,0,1.04868,1902.42,-93.331)">
                <rect x="2696.33" y="1900.42" width="6.027" height="20.441" style="fill:rgb(164,171,181);"/>
            </g>
            <g transform="matrix(0.189292,0.0507206,-0.099109,0.36988,2413.39,1066.28)">
                <rect x="2696.33" y="1900.42" width="6.027" height="20.441" style="fill:rgb(209,215,222);"/>
            </g>
        </g>
        <g transform="matrix(0.5,0.866025,-0.866025,0.5,3128.4,-1308.56)">
            <g id="G6" serif:id="G" transform="matrix(1,0,0,1,-1.21081,-1.21081)">
                <text x="2687.07px" y="1937.93px" style="font-family:'Arial-BoldMT', 'Arial', sans-serif;font-weight:700;font-size:13.892px;fill:rgb(164,171,181);">60°</text>
            </g>
            <g transform="matrix(0.293954,2.42566e-17,0,1.04868,1902.42,-93.331)">
                <rect x="2696.33" y="1900.42" width="6.027" height="20.441" style="fill:rgb(164,171,181);"/>
            </g>
            <g transform="matrix(0.189292,0.0507206,-0.099109,0.36988,2413.39,1066.28)">
                <rect x="2696.33" y="1900.42" width="6.027" height="20.441" style="fill:rgb(209,215,222);"/>
            </g>
        </g>
        <g transform="matrix(0.866025,0.5,-0.5,0.866025,1389.02,-1074.09)">
            <g id="G7" serif:id="G" transform="matrix(1,0,0,1,-1.21081,-1.21081)">
                <text x="2687.07px" y="1937.93px" style="font-family:'Arial-BoldMT', 'Arial', sans-serif;font-weight:700;font-size:13.892px;fill:rgb(164,171,181);">30°</text>
            </g>
            <g transform="matrix(0.293954,2.42566e-17,0,1.04868,1902.42,-93.331)">
                <rect x="2696.33" y="1900.42" width="6.027" height="20.441" style="fill:rgb(164,171,181);"/>
            </g>
            <g transform="matrix(0.189292,0.0507206,-0.099109,0.36988,2413.39,1066.28)">
                <rect x="2696.33" y="1900.42" width="6.027" height="20.441" style="fill:rgb(209,215,222);"/>
            </g>
        </g>
        <g transform="matrix(0.189292,0.0507206,-0.099109,0.36988,2413.07,1064.87)">
            <rect x="2696.33" y="1900.42" width="6.027" height="20.441" style="fill:rgb(209,215,222);"/>
        </g>
        <g transform="matrix(-0.0507206,0.189292,-0.36988,-0.099109,3684.04,1771.42)">
            <rect x="2696.33" y="1900.42" width="6.027" height="20.441" style="fill:rgb(209,215,222);"/>
        </g>
        <g transform="matrix(-0.189292,-0.0507206,0.099109,-0.36988,2978.41,3043.57)">
            <rect x="2696.33" y="1900.42" width="6.027" height="20.441" style="fill:rgb(209,215,222);"/>
        </g>
        <g transform="matrix(0.0507206,-0.189292,0.36988,0.099109,1707.63,2336.25)">
            <rect x="2696.33" y="1900.42" width="6.027" height="20.441" style="fill:rgb(209,215,222);"/>
        </g>
        <g>
            <g id="G8" serif:id="G" transform="matrix(1,0,0,1,-1.21081,-1.21081)">
                <text x="2690.93px" y="1937.93px" style="font-family:'Arial-BoldMT', 'Arial', sans-serif;font-weight:700;font-size:13.892px;">0°</text>
            </g>
            <g id="G9" serif:id="G" transform="matrix(1.7294,0,0,1.7294,-1968.72,-1463.18)">
                <text x="2690.93px" y="1937.93px" style="font-family:'Arial-BoldMT', 'Arial', sans-serif;font-weight:700;font-size:13.892px;fill:rgb(174,44,104);">N</text>
            </g>
            <g transform="matrix(0.436967,0,0,1.04868,1514.05,-93.331)">
                <rect x="2696.33" y="1900.42" width="6.027" height="20.441" style="fill:rgb(174,44,104);"/>
            </g>
        </g>
        <g transform="matrix(6.12323e-17,-1,1,6.12323e-17,641.989,4751.93)">
            <g id="G10" serif:id="G" transform="matrix(1,0,0,1,-2.14781,-1.21081)">
                <text x="2683.21px" y="1937.93px" style="font-family:'Arial-BoldMT', 'Arial', sans-serif;font-weight:700;font-size:13.892px;">270°</text>
            </g>
            <g id="G11" serif:id="G" transform="matrix(1.05895e-16,1.7294,-1.7294,1.05895e-16,6038.46,-2788.5)">
                <text x="2690.93px" y="1937.93px" style="font-family:'Arial-BoldMT', 'Arial', sans-serif;font-weight:700;font-size:13.892px;">W</text>
            </g>
            <g transform="matrix(0.436967,5.38604e-33,-1.29259e-32,1.04868,1516.08,-93.331)">
                <rect x="2696.33" y="1900.42" width="6.027" height="20.441" style="fill:rgb(174,44,104);"/>
            </g>
        </g>
        <g transform="matrix(-1,-1.22465e-16,1.22465e-16,-1,5391.61,4109.86)">
            <g id="G12" serif:id="G" transform="matrix(1,0,0,1,-2.14781,-1.21081)">
                <text x="2683.21px" y="1937.93px" style="font-family:'Arial-BoldMT', 'Arial', sans-serif;font-weight:700;font-size:13.892px;">180°</text>
            </g>
            <g id="G13" serif:id="G" transform="matrix(1.7294,-4.2358e-16,4.2358e-16,1.7294,-1963.51,-1465.67)">
                <text x="2690.93px" y="1937.93px" style="font-family:'Arial-BoldMT', 'Arial', sans-serif;font-weight:700;font-size:13.892px;">S</text>
            </g>
            <g transform="matrix(0.436967,1.07721e-32,-2.58519e-32,1.04868,1518.51,-93.331)">
                <rect x="2696.33" y="1900.42" width="6.027" height="20.441" style="fill:rgb(174,44,104);"/>
            </g>
        </g>
        <g transform="matrix(-1.83697e-16,1,-1,-1.83697e-16,4750.54,-639.004)">
            <g id="G14" serif:id="G" transform="matrix(1,0,0,1,-2.14781,-1.21081)">
                <text x="2683.21px" y="1937.93px" style="font-family:'Arial-BoldMT', 'Arial', sans-serif;font-weight:700;font-size:13.892px;">180°</text>
            </g>
            <g id="G15" serif:id="G" transform="matrix(-3.17685e-16,-1.7294,1.7294,-3.17685e-16,-647.534,6539.17)">
                <text x="2690.93px" y="1937.93px" style="font-family:'Arial-BoldMT', 'Arial', sans-serif;font-weight:700;font-size:13.892px;">E</text>
            </g>
            <g transform="matrix(0.436967,1.07721e-32,-2.58519e-32,1.04868,1515.8,-93.331)">
                <rect x="2696.33" y="1900.42" width="6.027" height="20.441" style="fill:rgb(174,44,104);"/>
            </g>
        </g>
    </g>
    <g transform="matrix(5.50247,0,0,5.50247,-13796.1,-10261.4)">
        <g id="G16" serif:id="G" transform="matrix(0.58775,-6.52534e-17,-3.26267e-17,0.58775,1026.98,922.032)">
            <text x="2683.67px" y="1937.93px" style="font-family:'Arial-BoldMT', 'Arial', sans-serif;font-weight:700;font-size:13.892px;fill:rgb(194,214,233);">30m</text>
        </g>
    </g>
    <g transform="matrix(5.50247,0,0,5.50247,-13796.1,-10261.4)">
        <g id="G17" serif:id="G" transform="matrix(0.58775,-6.52534e-17,-3.26267e-17,0.58775,1047.03,922.032)">
            <text x="2683.67px" y="1937.93px" style="font-family:'Arial-BoldMT', 'Arial', sans-serif;font-weight:700;font-size:13.892px;fill:rgb(194,214,233);">20m</text>
        </g>
    </g>
    <g transform="matrix(5.50247,0,0,5.50247,-13796.1,-10261.4)">
        <g id="G18" serif:id="G" transform="matrix(0.58775,-6.52534e-17,-3.26267e-17,0.58775,1068.05,922.032)">
            <text x="2683.67px" y="1937.93px" style="font-family:'Arial-BoldMT', 'Arial', sans-serif;font-weight:700;font-size:13.892px;fill:rgb(194,214,233);">10m</text>
        </g>
    </g>
    <g transform="matrix(5.50247,0,0,5.50247,-13796.1,-10261.4)">
        <g transform="matrix(0.245709,0,0,0.38699,2302.16,1456.48)">
            <rect x="834.72" y="1055.32" width="1516.55" height="973.374" style="fill:rgb(235,235,235);fill-opacity:0;"/>
        </g>
    </g>
    <defs>
        <radialGradient id="_Radial1" cx="0" cy="0" r="1" gradientUnits="userSpaceOnUse" gradientTransform="matrix(39.0787,39.0787,-39.0787,39.0787,2693.17,2053.91)"><stop offset="0" style="stop-color:rgb(211,228,252);stop-opacity:1"/><stop offset="1" style="stop-color:rgb(92,160,255);stop-opacity:0"/></radialGradient>
        <linearGradient id="_Linear2" x1="0" y1="0" x2="1" y2="0" gradientUnits="userSpaceOnUse" gradientTransform="matrix(90.1309,90.1309,-90.1309,90.1309,2660.94,2001.27)"><stop offset="0" style="stop-color:rgb(211,222,238);stop-opacity:1"/><stop offset="1" style="stop-color:rgb(244,249,255);stop-opacity:1"/></linearGradient>
        <linearGradient id="_Linear3" x1="0" y1="0" x2="1" y2="0" gradientUnits="userSpaceOnUse" gradientTransform="matrix(73.6509,107.525,-107.525,73.6509,2658.77,1999.11)"><stop offset="0" style="stop-color:rgb(211,222,238);stop-opacity:1"/><stop offset="1" style="stop-color:rgb(243,248,254);stop-opacity:1"/></linearGradient>
        <linearGradient id="_Linear4" x1="0" y1="0" x2="1" y2="0" gradientUnits="userSpaceOnUse" gradientTransform="matrix(110.068,110.817,-110.817,110.068,2654.46,1994.14)"><stop offset="0" style="stop-color:rgb(194,214,233);stop-opacity:1"/><stop offset="1" style="stop-color:rgb(241,246,253);stop-opacity:1"/></linearGradient>
        <linearGradient id="_Linear5" x1="0" y1="0" x2="1" y2="0" gradientUnits="userSpaceOnUse" gradientTransform="matrix(73.6509,107.525,-107.525,73.6509,2658.77,1999.11)"><stop offset="0" style="stop-color:rgb(211,222,238);stop-opacity:1"/><stop offset="1" style="stop-color:rgb(244,249,255);stop-opacity:1"/></linearGradient>
        <linearGradient id="_Linear6" x1="0" y1="0" x2="1" y2="0" gradientUnits="userSpaceOnUse" gradientTransform="matrix(93.2582,93.2582,-93.2582,93.2582,2658.77,1999.11)"><stop offset="0" style="stop-color:rgb(194,214,233);stop-opacity:1"/><stop offset="1" style="stop-color:rgb(244,249,255);stop-opacity:1"/></linearGradient>
        <linearGradient id="_Linear7" x1="0" y1="0" x2="1" y2="0" gradientUnits="userSpaceOnUse" gradientTransform="matrix(73.6509,107.525,-107.525,73.6509,2658.77,1999.11)"><stop offset="0" style="stop-color:rgb(211,222,238);stop-opacity:1"/><stop offset="1" style="stop-color:rgb(244,249,255);stop-opacity:1"/></linearGradient>
        <linearGradient id="_Linear8" x1="0" y1="0" x2="1" y2="0" gradientUnits="userSpaceOnUse" gradientTransform="matrix(99.8074,99.8074,-99.8074,99.8074,2658.77,1999.11)"><stop offset="0" style="stop-color:rgb(194,214,233);stop-opacity:1"/><stop offset="1" style="stop-color:rgb(244,249,255);stop-opacity:1"/></linearGradient>
    </defs>
</svg>
